<?xml version="1.0" encoding="utf-8"?>
<svg xmlns="http://www.w3.org/2000/svg"
	xmlns:xlink="http://www.w3.org/1999/xlink"
	width="190px" height="190px" viewBox="0 0 95 95">
<path fillRule="evenodd" d="M 90.25 82.11C 90.25 82.11 90.25 91.83 90.25 91.83 90.25 91.83 93.42 91.83 93.42 91.83 94.29 91.83 95 92.54 95 93.42 95 94.29 94.29 95 93.42 95 93.42 95 1.58 95 1.58 95 0.71 95 0 94.29 0 93.42 0 92.54 0.71 91.83 1.58 91.83 1.58 91.83 6.33 91.83 6.33 91.83 6.33 91.83 6.33 75.84 6.33 75.84 2.73 75.1 0 71.91 0 68.08 0 63.72 3.55 60.17 7.92 60.17 12.28 60.17 15.83 63.72 15.83 68.08 15.83 71.91 13.11 75.1 9.5 75.84 9.5 75.84 9.5 91.83 9.5 91.83 9.5 91.83 44.33 91.83 44.33 91.83 44.33 91.83 44.33 85.34 44.33 85.34 40.72 84.6 38 81.41 38 77.58 38 73.22 41.55 69.67 45.92 69.67 50.28 69.67 53.83 73.22 53.83 77.58 53.83 81.41 51.11 84.6 47.5 85.34 47.5 85.34 47.5 91.83 47.5 91.83 47.5 91.83 87.08 91.83 87.08 91.83 87.08 91.83 87.08 82.11 87.08 82.11 84.36 81.4 82.33 78.94 82.33 76 82.33 72.51 85.17 69.67 88.67 69.67 92.16 69.67 95 72.51 95 76 95 78.94 92.97 81.4 90.25 82.11ZM 12.67 68.08C 12.67 65.46 10.54 63.33 7.92 63.33 5.3 63.33 3.17 65.46 3.17 68.08 3.17 70.7 5.3 72.83 7.92 72.83 10.54 72.83 12.67 70.7 12.67 68.08ZM 50.67 77.58C 50.67 74.96 48.54 72.83 45.92 72.83 43.3 72.83 41.17 74.96 41.17 77.58 41.17 80.2 43.3 82.33 45.92 82.33 48.54 82.33 50.67 80.2 50.67 77.58ZM 88.67 72.83C 86.92 72.83 85.5 74.25 85.5 76 85.5 77.75 86.92 79.17 88.67 79.17 90.41 79.17 91.83 77.75 91.83 76 91.83 74.25 90.41 72.83 88.67 72.83ZM 83.92 60.17C 84.79 60.17 85.5 60.88 85.5 61.75 85.5 61.75 85.5 64.92 85.5 64.92 85.5 65.79 84.79 66.5 83.92 66.5 83.04 66.5 82.33 65.79 82.33 64.92 82.33 64.92 82.33 61.75 82.33 61.75 82.33 60.88 83.04 60.17 83.92 60.17ZM 82.33 52.25C 82.33 51.38 83.04 50.67 83.92 50.67 84.79 50.67 85.5 51.38 85.5 52.25 85.5 52.25 85.5 55.42 85.5 55.42 85.5 56.29 84.79 57 83.92 57 83.04 57 82.33 56.29 82.33 55.42 82.33 55.42 82.33 52.25 82.33 52.25ZM 76 52.25C 76 51.38 76.71 50.67 77.58 50.67 78.46 50.67 79.17 51.38 79.17 52.25 79.17 52.25 79.17 55.42 79.17 55.42 79.17 56.29 78.46 57 77.58 57 76.71 57 76 56.29 76 55.42 76 55.42 76 52.25 76 52.25ZM 76 61.75C 76 60.88 76.71 60.17 77.58 60.17 78.46 60.17 79.17 60.88 79.17 61.75 79.17 61.75 79.17 64.92 79.17 64.92 79.17 65.79 78.46 66.5 77.58 66.5 76.71 66.5 76 65.79 76 64.92 76 64.92 76 61.75 76 61.75ZM 77.58 79.17C 78.46 79.17 79.17 79.87 79.17 80.75 79.17 80.75 79.17 87.08 79.17 87.08 79.17 87.96 78.46 88.67 77.58 88.67 76.71 88.67 76 87.96 76 87.08 76 87.08 76 80.75 76 80.75 76 79.87 76.71 79.17 77.58 79.17ZM 76 71.25C 76 70.38 76.71 69.67 77.58 69.67 78.46 69.67 79.17 70.38 79.17 71.25 79.17 71.25 79.17 74.42 79.17 74.42 79.17 75.29 78.46 76 77.58 76 76.71 76 76 75.29 76 74.42 76 74.42 76 71.25 76 71.25ZM 90.25 66.5C 89.38 66.5 88.67 65.79 88.67 64.92 88.67 64.92 88.67 48.6 88.67 48.6 88.67 48.6 77.03 44.23 77.03 44.23 76.41 44 76 43.41 76 42.75 76 42.75 76 16.28 76 16.28 76 16.28 60.17 20.24 60.17 20.24 60.17 20.24 60.17 26.92 60.17 26.92 60.17 27.79 59.46 28.5 58.58 28.5 57.71 28.5 57 27.79 57 26.92 57 26.92 57 19 57 19 57 18.27 57.49 17.64 58.2 17.46 58.2 17.46 76 13.01 76 13.01 76 13.01 76 11.08 76 11.08 76 10.21 76.71 9.5 77.58 9.5 78.46 9.5 79.17 10.21 79.17 11.08 79.17 11.08 79.17 41.65 79.17 41.65 79.17 41.65 90.8 46.02 90.8 46.02 91.42 46.25 91.83 46.84 91.83 47.5 91.83 47.5 91.83 64.92 91.83 64.92 91.83 65.79 91.12 66.5 90.25 66.5ZM 63.33 26.92C 63.33 26.92 63.33 23.75 63.33 23.75 63.33 22.88 64.04 22.17 64.92 22.17 65.79 22.17 66.5 22.88 66.5 23.75 66.5 23.75 66.5 26.92 66.5 26.92 66.5 27.79 65.79 28.5 64.92 28.5 64.04 28.5 63.33 27.79 63.33 26.92ZM 71.25 28.5C 70.38 28.5 69.67 27.79 69.67 26.92 69.67 26.92 69.67 23.75 69.67 23.75 69.67 22.88 70.38 22.17 71.25 22.17 72.12 22.17 72.83 22.88 72.83 23.75 72.83 23.75 72.83 26.92 72.83 26.92 72.83 27.79 72.12 28.5 71.25 28.5ZM 63.33 42.75C 63.33 41.88 64.04 41.17 64.92 41.17 65.79 41.17 66.5 41.88 66.5 42.75 66.5 42.75 66.5 45.92 66.5 45.92 66.5 46.79 65.79 47.5 64.92 47.5 64.04 47.5 63.33 46.79 63.33 45.92 63.33 45.92 63.33 42.75 63.33 42.75ZM 63.33 52.25C 63.33 51.38 64.04 50.67 64.92 50.67 65.79 50.67 66.5 51.38 66.5 52.25 66.5 52.25 66.5 55.42 66.5 55.42 66.5 56.29 65.79 57 64.92 57 64.04 57 63.33 56.29 63.33 55.42 63.33 55.42 63.33 52.25 63.33 52.25ZM 63.33 61.75C 63.33 60.88 64.04 60.17 64.92 60.17 65.79 60.17 66.5 60.88 66.5 61.75 66.5 61.75 66.5 64.92 66.5 64.92 66.5 65.79 65.79 66.5 64.92 66.5 64.04 66.5 63.33 65.79 63.33 64.92 63.33 64.92 63.33 61.75 63.33 61.75ZM 64.92 79.17C 65.79 79.17 66.5 79.87 66.5 80.75 66.5 80.75 66.5 87.08 66.5 87.08 66.5 87.96 65.79 88.67 64.92 88.67 64.04 88.67 63.33 87.96 63.33 87.08 63.33 87.08 63.33 80.75 63.33 80.75 63.33 79.87 64.04 79.17 64.92 79.17ZM 63.33 71.25C 63.33 70.38 64.04 69.67 64.92 69.67 65.79 69.67 66.5 70.38 66.5 71.25 66.5 71.25 66.5 74.42 66.5 74.42 66.5 75.29 65.79 76 64.92 76 64.04 76 63.33 75.29 63.33 74.42 63.33 74.42 63.33 71.25 63.33 71.25ZM 57 42.75C 57 41.88 57.71 41.17 58.58 41.17 59.46 41.17 60.17 41.88 60.17 42.75 60.17 42.75 60.17 45.92 60.17 45.92 60.17 46.79 59.46 47.5 58.58 47.5 57.71 47.5 57 46.79 57 45.92 57 45.92 57 42.75 57 42.75ZM 57 52.25C 57 51.38 57.71 50.67 58.58 50.67 59.46 50.67 60.17 51.38 60.17 52.25 60.17 52.25 60.17 55.42 60.17 55.42 60.17 56.29 59.46 57 58.58 57 57.71 57 57 56.29 57 55.42 57 55.42 57 52.25 57 52.25ZM 57 61.75C 57 60.88 57.71 60.17 58.58 60.17 59.46 60.17 60.17 60.88 60.17 61.75 60.17 61.75 60.17 64.92 60.17 64.92 60.17 65.79 59.46 66.5 58.58 66.5 57.71 66.5 57 65.79 57 64.92 57 64.92 57 61.75 57 61.75ZM 58.58 79.17C 59.46 79.17 60.17 79.87 60.17 80.75 60.17 80.75 60.17 87.08 60.17 87.08 60.17 87.96 59.46 88.67 58.58 88.67 57.71 88.67 57 87.96 57 87.08 57 87.08 57 80.75 57 80.75 57 79.87 57.71 79.17 58.58 79.17ZM 57 71.25C 57 70.38 57.71 69.67 58.58 69.67 59.46 69.67 60.17 70.38 60.17 71.25 60.17 71.25 60.17 74.42 60.17 74.42 60.17 75.29 59.46 76 58.58 76 57.71 76 57 75.29 57 74.42 57 74.42 57 71.25 57 71.25ZM 50.67 42.75C 50.67 41.88 51.38 41.17 52.25 41.17 53.12 41.17 53.83 41.88 53.83 42.75 53.83 42.75 53.83 45.92 53.83 45.92 53.83 46.79 53.12 47.5 52.25 47.5 51.38 47.5 50.67 46.79 50.67 45.92 50.67 45.92 50.67 42.75 50.67 42.75ZM 52.25 60.17C 53.12 60.17 53.83 60.88 53.83 61.75 53.83 61.75 53.83 64.92 53.83 64.92 53.83 65.79 53.12 66.5 52.25 66.5 51.38 66.5 50.67 65.79 50.67 64.92 50.67 64.92 50.67 61.75 50.67 61.75 50.67 60.88 51.38 60.17 52.25 60.17ZM 50.67 52.25C 50.67 51.38 51.38 50.67 52.25 50.67 53.12 50.67 53.83 51.38 53.83 52.25 53.83 52.25 53.83 55.42 53.83 55.42 53.83 56.29 53.12 57 52.25 57 51.38 57 50.67 56.29 50.67 55.42 50.67 55.42 50.67 52.25 50.67 52.25ZM 45.92 66.5C 45.04 66.5 44.33 65.79 44.33 64.92 44.33 64.92 44.33 30.08 44.33 30.08 44.33 29.6 44.56 29.13 44.94 28.84 45.33 28.54 45.83 28.43 46.3 28.55 46.3 28.55 71.63 34.88 71.63 34.88 72.34 35.06 72.83 35.69 72.83 36.42 72.83 36.42 72.83 87.08 72.83 87.08 72.83 87.96 72.12 88.67 71.25 88.67 70.38 88.67 69.67 87.96 69.67 87.08 69.67 87.08 69.67 37.65 69.67 37.65 69.67 37.65 47.5 32.11 47.5 32.11 47.5 32.11 47.5 64.92 47.5 64.92 47.5 65.79 46.79 66.5 45.92 66.5ZM 38 14.25C 38 13.38 38.71 12.67 39.58 12.67 40.46 12.67 41.17 13.38 41.17 14.25 41.17 14.25 41.17 17.42 41.17 17.42 41.17 18.29 40.46 19 39.58 19 38.71 19 38 18.29 38 17.42 38 17.42 38 14.25 38 14.25ZM 38 23.75C 38 22.88 38.71 22.17 39.58 22.17 40.46 22.17 41.17 22.88 41.17 23.75 41.17 23.75 41.17 26.92 41.17 26.92 41.17 27.79 40.46 28.5 39.58 28.5 38.71 28.5 38 27.79 38 26.92 38 26.92 38 23.75 38 23.75ZM 38 33.25C 38 32.38 38.71 31.67 39.58 31.67 40.46 31.67 41.17 32.38 41.17 33.25 41.17 33.25 41.17 36.42 41.17 36.42 41.17 37.29 40.46 38 39.58 38 38.71 38 38 37.29 38 36.42 38 36.42 38 33.25 38 33.25ZM 38 42.75C 38 41.88 38.71 41.17 39.58 41.17 40.46 41.17 41.17 41.88 41.17 42.75 41.17 42.75 41.17 45.92 41.17 45.92 41.17 46.79 40.46 47.5 39.58 47.5 38.71 47.5 38 46.79 38 45.92 38 45.92 38 42.75 38 42.75ZM 39.58 60.17C 40.46 60.17 41.17 60.88 41.17 61.75 41.17 61.75 41.17 64.92 41.17 64.92 41.17 65.79 40.46 66.5 39.58 66.5 38.71 66.5 38 65.79 38 64.92 38 64.92 38 61.75 38 61.75 38 60.88 38.71 60.17 39.58 60.17ZM 38 52.25C 38 51.38 38.71 50.67 39.58 50.67 40.46 50.67 41.17 51.38 41.17 52.25 41.17 52.25 41.17 55.42 41.17 55.42 41.17 56.29 40.46 57 39.58 57 38.71 57 38 56.29 38 55.42 38 55.42 38 52.25 38 52.25ZM 31.67 14.25C 31.67 13.38 32.38 12.67 33.25 12.67 34.12 12.67 34.83 13.38 34.83 14.25 34.83 14.25 34.83 17.42 34.83 17.42 34.83 18.29 34.12 19 33.25 19 32.38 19 31.67 18.29 31.67 17.42 31.67 17.42 31.67 14.25 31.67 14.25ZM 31.67 23.75C 31.67 22.88 32.38 22.17 33.25 22.17 34.12 22.17 34.83 22.88 34.83 23.75 34.83 23.75 34.83 26.92 34.83 26.92 34.83 27.79 34.12 28.5 33.25 28.5 32.38 28.5 31.67 27.79 31.67 26.92 31.67 26.92 31.67 23.75 31.67 23.75ZM 31.67 33.25C 31.67 32.38 32.38 31.67 33.25 31.67 34.12 31.67 34.83 32.38 34.83 33.25 34.83 33.25 34.83 36.42 34.83 36.42 34.83 37.29 34.12 38 33.25 38 32.38 38 31.67 37.29 31.67 36.42 31.67 36.42 31.67 33.25 31.67 33.25ZM 31.67 42.75C 31.67 41.88 32.38 41.17 33.25 41.17 34.12 41.17 34.83 41.88 34.83 42.75 34.83 42.75 34.83 45.92 34.83 45.92 34.83 46.79 34.12 47.5 33.25 47.5 32.38 47.5 31.67 46.79 31.67 45.92 31.67 45.92 31.67 42.75 31.67 42.75ZM 31.67 52.25C 31.67 51.38 32.38 50.67 33.25 50.67 34.12 50.67 34.83 51.38 34.83 52.25 34.83 52.25 34.83 55.42 34.83 55.42 34.83 56.29 34.12 57 33.25 57 32.38 57 31.67 56.29 31.67 55.42 31.67 55.42 31.67 52.25 31.67 52.25ZM 31.67 61.75C 31.67 60.88 32.38 60.17 33.25 60.17 34.12 60.17 34.83 60.88 34.83 61.75 34.83 61.75 34.83 64.92 34.83 64.92 34.83 65.79 34.12 66.5 33.25 66.5 32.38 66.5 31.67 65.79 31.67 64.92 31.67 64.92 31.67 61.75 31.67 61.75ZM 33.25 79.17C 34.12 79.17 34.83 79.87 34.83 80.75 34.83 80.75 34.83 87.08 34.83 87.08 34.83 87.96 34.12 88.67 33.25 88.67 32.38 88.67 31.67 87.96 31.67 87.08 31.67 87.08 31.67 80.75 31.67 80.75 31.67 79.87 32.38 79.17 33.25 79.17ZM 31.67 71.25C 31.67 70.38 32.38 69.67 33.25 69.67 34.12 69.67 34.83 70.38 34.83 71.25 34.83 71.25 34.83 74.42 34.83 74.42 34.83 75.29 34.12 76 33.25 76 32.38 76 31.67 75.29 31.67 74.42 31.67 74.42 31.67 71.25 31.67 71.25ZM 45.92 25.33C 45.04 25.33 44.33 24.62 44.33 23.75 44.33 23.75 44.33 10.48 44.33 10.48 44.33 10.48 36.42 6.52 36.42 6.52 36.42 6.52 28.5 10.48 28.5 10.48 28.5 10.48 28.5 23.75 28.5 23.75 28.5 24.35 28.16 24.9 27.62 25.17 27.62 25.17 22.17 27.89 22.17 27.89 22.17 27.89 22.17 39.58 22.17 39.58 22.17 40.46 21.46 41.17 20.58 41.17 19.71 41.17 19 40.46 19 39.58 19 39.58 19 26.92 19 26.92 19 26.32 19.34 25.77 19.88 25.5 19.88 25.5 25.33 22.77 25.33 22.77 25.33 22.77 25.33 9.5 25.33 9.5 25.33 8.9 25.67 8.35 26.21 8.08 26.21 8.08 34.83 3.77 34.83 3.77 34.83 3.77 34.83 1.58 34.83 1.58 34.83 0.71 35.54-0 36.42-0 37.29-0 38 0.71 38 1.58 38 1.58 38 3.77 38 3.77 38 3.77 46.62 8.08 46.62 8.08 47.16 8.35 47.5 8.9 47.5 9.5 47.5 9.5 47.5 23.75 47.5 23.75 47.5 24.62 46.79 25.33 45.92 25.33ZM 26.92 38C 26.04 38 25.33 37.29 25.33 36.42 25.33 36.42 25.33 33.25 25.33 33.25 25.33 32.38 26.04 31.67 26.92 31.67 27.79 31.67 28.5 32.38 28.5 33.25 28.5 33.25 28.5 36.42 28.5 36.42 28.5 37.29 27.79 38 26.92 38ZM 19 52.25C 19 51.38 19.71 50.67 20.58 50.67 21.46 50.67 22.17 51.38 22.17 52.25 22.17 52.25 22.17 55.42 22.17 55.42 22.17 56.29 21.46 57 20.58 57 19.71 57 19 56.29 19 55.42 19 55.42 19 52.25 19 52.25ZM 19 61.75C 19 60.88 19.71 60.17 20.58 60.17 21.46 60.17 22.17 60.88 22.17 61.75 22.17 61.75 22.17 64.92 22.17 64.92 22.17 65.79 21.46 66.5 20.58 66.5 19.71 66.5 19 65.79 19 64.92 19 64.92 19 61.75 19 61.75ZM 20.58 79.17C 21.46 79.17 22.17 79.87 22.17 80.75 22.17 80.75 22.17 87.08 22.17 87.08 22.17 87.96 21.46 88.67 20.58 88.67 19.71 88.67 19 87.96 19 87.08 19 87.08 19 80.75 19 80.75 19 79.87 19.71 79.17 20.58 79.17ZM 19 71.25C 19 70.38 19.71 69.67 20.58 69.67 21.46 69.67 22.17 70.38 22.17 71.25 22.17 71.25 22.17 74.42 22.17 74.42 22.17 75.29 21.46 76 20.58 76 19.71 76 19 75.29 19 74.42 19 74.42 19 71.25 19 71.25ZM 14.25 88.67C 13.38 88.67 12.67 87.96 12.67 87.08 12.67 87.08 12.67 80.75 12.67 80.75 12.67 79.87 13.38 79.17 14.25 79.17 15.12 79.17 15.83 79.87 15.83 80.75 15.83 80.75 15.83 87.08 15.83 87.08 15.83 87.96 15.12 88.67 14.25 88.67ZM 15.83 52.25C 15.83 52.25 15.83 55.42 15.83 55.42 15.83 56.29 15.12 57 14.25 57 13.38 57 12.67 56.29 12.67 55.42 12.67 55.42 12.67 52.25 12.67 52.25 12.67 51.38 13.38 50.67 14.25 50.67 15.12 50.67 15.83 51.38 15.83 52.25ZM 28.5 45.92C 28.5 45.92 28.5 87.08 28.5 87.08 28.5 87.96 27.79 88.67 26.92 88.67 26.04 88.67 25.33 87.96 25.33 87.08 25.33 87.08 25.33 47.5 25.33 47.5 25.33 47.5 9.5 47.5 9.5 47.5 9.5 47.5 9.5 55.42 9.5 55.42 9.5 56.29 8.79 57 7.92 57 7.04 57 6.33 56.29 6.33 55.42 6.33 55.42 6.33 45.92 6.33 45.92 6.33 45.04 7.04 44.33 7.92 44.33 7.92 44.33 26.92 44.33 26.92 44.33 27.79 44.33 28.5 45.04 28.5 45.92Z" fill="rgb(1,105,179)"/></svg>