<?xml version="1.0" encoding="utf-8"?>
<svg xmlns="http://www.w3.org/2000/svg"
	xmlns:xlink="http://www.w3.org/1999/xlink"
	width="110px" height="90px" viewBox="0 0 55 45">
<path fillRule="evenodd" d="M 35.32 25.51C 35.32 25.51 43.17 38.37 43.17 38.37 43.17 38.37 11.82 38.37 11.82 38.37 11.82 38.37 27.5 12.72 27.5 12.72 27.5 12.72 35.27 25.44 35.27 25.44 35.27 25.44 39.16 19.08 39.16 19.08 39.16 19.08 27.5-0 27.5-0 27.5-0-0 45-0 45-0 45 55 45 55 45 55 45 43.09 25.51 43.09 25.51 43.09 25.51 35.32 25.51 35.32 25.51Z" fill="rgb(255,255,255)"/></svg>