<?xml version="1.0" encoding="utf-8"?>
<svg xmlns="http://www.w3.org/2000/svg"
	xmlns:xlink="http://www.w3.org/1999/xlink"
	width="36px" height="32px" viewBox="0 0 36 32">
<path fillRule="evenodd" d="M 33 9C 33 9 27.9 9 27.9 9 27.87 8.9 27.83 8.8 27.77 8.71 27.77 8.71 22.77 0.71 22.77 0.71 22.51 0.28 22.04-0 21.5-0 20.67-0 20 0.67 20 1.5 20 1.79 20.08 2.06 20.23 2.29 20.23 2.29 24.42 9 24.42 9 24.42 9 11.58 9 11.58 9 11.58 9 15.77 2.29 15.77 2.29 15.92 2.06 16 1.79 16 1.5 16 0.67 15.33-0 14.5-0 13.96-0 13.49 0.28 13.23 0.71 13.23 0.71 8.23 8.71 8.23 8.71 8.17 8.8 8.13 8.9 8.1 9 8.1 9 3 9 3 9 1.34 9 0 10.34 0 12 0 12 0 14 0 14 0 15.42 0.99 16.6 2.32 16.91 2.32 16.91 6.12 29.85 6.12 29.85 6.49 31.09 7.64 32 9 32 9 32 27 32 27 32 28.36 32 29.51 31.09 29.88 29.85 29.88 29.85 33.68 16.91 33.68 16.91 35.01 16.6 36 15.42 36 14 36 14 36 12 36 12 36 10.34 34.66 9 33 9ZM 3 12C 3 12 33 12 33 12 33 12 33 14 33 14 33 14 3 14 3 14 3 14 3 12 3 12ZM 27 29C 27 29 9 29 9 29 9 29 5.47 17 5.47 17 5.47 17 30.53 17 30.53 17 30.53 17 27 29 27 29Z" fill="rgb(215,215,215)"/></svg>