<?xml version="1.0" encoding="utf-8"?>
<!-- Generator: Adobe Illustrator 21.1.0, SVG Export Plug-In . SVG Version: 6.00 Build 0)  -->
<svg version="1.1" id="Layer_1" xmlns="http://www.w3.org/2000/svg" xmlns:xlink="http://www.w3.org/1999/xlink" x="0px" y="0px"
	 viewBox="0 0 62.4 49.3" style="enable-background:new 0 0 62.4 49.3;" xml:space="preserve">
<style type="text/css">
	.st0{fill:none;stroke:#D8D8D8;stroke-width:4;stroke-linecap:square;stroke-miterlimit:10;}
	.st1{fill:none;stroke:#D8D8D8;stroke-width:3;stroke-linecap:square;stroke-miterlimit:10;}
	.st2{fill:none;stroke:#D8D8D8;stroke-width:2;stroke-linecap:square;stroke-miterlimit:10;}
	.st3{fill:none;stroke:#D8D8D8;stroke-linecap:square;stroke-miterlimit:10;}
</style>
<g>
	<g>
		<path class="st0" d="M2.3,1.9v34.5c0,1.1,0.9,2,2,2h53.7c1.1,0,2-0.9,2-2V1.9"/>
	</g>
	<g>
		<path class="st1" d="M59.1,47.4v-2.5c0-1.1-0.9-2-2-2H4.3c-1.1,0-2,0.9-2,2v2.5"/>
	</g>
	<g>
		<line class="st2" x1="59.8" y1="6.4" x2="2.9" y2="6.4"/>
	</g>
	<g>
		<line class="st2" x1="59.8" y1="29.4" x2="2.9" y2="29.4"/>
	</g>
	<g>
		<line class="st3" x1="59.8" y1="32.4" x2="2.9" y2="32.4"/>
	</g>
	<g>
		<line class="st2" x1="10.9" y1="7.4" x2="10.9" y2="28"/>
	</g>
	<g>
		<line class="st2" x1="18.9" y1="7.4" x2="18.9" y2="28"/>
	</g>
	<g>
		<line class="st2" x1="26.9" y1="7.4" x2="26.9" y2="28"/>
	</g>
	<g>
		<line class="st2" x1="34.9" y1="7.4" x2="34.9" y2="28"/>
	</g>
	<g>
		<line class="st2" x1="42.9" y1="7.4" x2="42.9" y2="28"/>
	</g>
	<g>
		<line class="st2" x1="50.9" y1="7.4" x2="50.9" y2="28"/>
	</g>
</g>
</svg>
