<svg xmlns="http://www.w3.org/2000/svg" width="32" height="30" viewBox="0 0 32 30">
  <defs>
    <style>
      .cls-1 {
        fill: #ff547c;
        fill-rule: evenodd;
      }
    </style>
  </defs>
  <path id="Heart" class="cls-1" d="M955,113a6.007,6.007,0,0,1,6,6c0,8.839-9.435,15.391-13,17.55-3.566-2.159-13-8.711-13-17.55a6,6,0,0,1,10.667-3.766A3,3,0,0,0,948,116.348h0a3,3,0,0,0,2.333-1.114A5.977,5.977,0,0,1,955,113m0-3a8.977,8.977,0,0,0-7,3.348A9,9,0,0,0,932,119c0,12,14,20,16,21,2-1,16-9,16-21a9,9,0,0,0-9-9h0Z" transform="translate(-932 -110)"/>
</svg>
