<?xml version="1.0" encoding="utf-8"?>
<svg xmlns="http://www.w3.org/2000/svg"
	xmlns:xlink="http://www.w3.org/1999/xlink"
	width="26px" height="32px" viewBox="0 0 26 32">
<path fillRule="evenodd" d="M 13 3.74C 13 3.74 23 13.74 23 13.74 23 13.74 23 29 23 29 23 29 18 29 18 29 18 29 18 22 18 22 18 20.9 17.1 20 16 20 16 20 10 20 10 20 8.9 20 8 20.9 8 22 8 22 8 29 8 29 8 29 3 29 3 29 3 29 3 13.74 3 13.74 3 13.74 13 3.74 13 3.74M 13.88 0.38C 13.4-0.1 12.6-0.1 12.12 0.38 12.12 0.38 0.59 11.91 0.59 11.91 0.21 12.29-0 12.8-0 13.33-0 13.33-0 30-0 30-0 31.1 0.9 32 2 32 2 32 9 32 9 32 10.1 32 11 31.1 11 30 11 30 11 23 11 23 11 23 15 23 15 23 15 23 15 30 15 30 15 31.1 15.9 32 17 32 17 32 24 32 24 32 25.1 32 26 31.1 26 30 26 30 26 13.33 26 13.33 26 12.8 25.79 12.29 25.41 11.91 25.41 11.91 13.88 0.38 13.88 0.38Z" fill="rgb(215,215,215)"/></svg>