<?xml version="1.0" encoding="utf-8"?>
<svg xmlns="http://www.w3.org/2000/svg"
	xmlns:xlink="http://www.w3.org/1999/xlink"
	width="27px" height="32px" viewBox="0 0 27 32">
<path fillRule="evenodd" d="M 25 32C 25 32 2 32 2 32 0.9 32 0 31.1 0 30 0 30 0 9 0 9 0 7.9 0.9 7 2 7 2 7 7.5 7 7.5 7 8.33 7 9 7.67 9 8.5 9 9.33 8.33 10 7.5 10 7.5 10 3 10 3 10 3 10 3 29 3 29 3 29 24 29 24 29 24 29 24 10 24 10 24 10 19.5 10 19.5 10 18.67 10 18 9.33 18 8.5 18 7.67 18.67 7 19.5 7 19.5 7 25 7 25 7 26.1 7 27 7.9 27 9 27 9 27 30 27 30 27 31.1 26.1 32 25 32ZM 20 16.5C 20 16.91 19.83 17.29 19.56 17.56 19.56 17.56 14.56 22.56 14.56 22.56 14.29 22.83 13.91 23 13.5 23 13.09 23 12.71 22.83 12.44 22.56 12.44 22.56 7.44 17.56 7.44 17.56 7.17 17.29 7 16.91 7 16.5 7 15.67 7.67 15 8.5 15 8.91 15 9.29 15.17 9.56 15.44 9.56 15.44 12 17.88 12 17.88 12 17.88 12 1.5 12 1.5 12 0.67 12.67-0 13.5-0 14.33-0 15 0.67 15 1.5 15 1.5 15 17.88 15 17.88 15 17.88 17.44 15.44 17.44 15.44 17.71 15.17 18.09 15 18.5 15 19.33 15 20 15.67 20 16.5Z" fill="rgb(215,215,215)"/></svg>