<?xml version="1.0" encoding="utf-8"?>
<!-- Generator: Adobe Illustrator 21.1.0, SVG Export Plug-In . SVG Version: 6.00 Build 0)  -->
<svg version="1.1" id="Layer_1" xmlns="http://www.w3.org/2000/svg" xmlns:xlink="http://www.w3.org/1999/xlink" x="0px" y="0px"
	 viewBox="0 0 69.1 53.4" style="enable-background:new 0 0 69.1 53.4;" xml:space="preserve">
<style type="text/css">
	.st0{fill:none;stroke:#D8D8D8;stroke-width:2;stroke-linecap:square;stroke-miterlimit:10;}
	.st1{fill:none;stroke:#D8D8D8;stroke-width:3;stroke-linecap:square;stroke-miterlimit:10;}
	.st2{fill:none;stroke:#D8D8D8;stroke-width:4;stroke-linecap:square;stroke-miterlimit:10;}
	.st3{fill:#FFFFFF;stroke:#D8D8D8;stroke-miterlimit:10;}
</style>
<g>
	<g>
		<line class="st0" x1="41.1" y1="14.5" x2="41.1" y2="48.1"/>
	</g>
	<g>
		<line class="st0" x1="3.6" y1="14.3" x2="66.6" y2="14.3"/>
	</g>
	<g>
		<line class="st0" x1="20.1" y1="1" x2="7.2" y2="1"/>
	</g>
	<g>
		<line class="st0" x1="41.1" y1="1" x2="28.2" y2="1"/>
	</g>
	<g>
		<line class="st0" x1="62.1" y1="1" x2="49.2" y2="1"/>
	</g>
	<g>
		<line class="st1" x1="11.4" y1="52" x2="5.2" y2="52"/>
	</g>
	<g>
		<line class="st1" x1="64.4" y1="52" x2="58.2" y2="52"/>
	</g>
	<g>
		<path class="st2" d="M67.1,47c0,1.1-0.9,2-2,2h-61c-1.1,0-2-0.9-2-2V6c0-1.1,0.9-2,2-2h61c1.1,0,2,0.9,2,2V47z"/>
	</g>
	<g>
		<path class="st0" d="M34.1,36.5c0,1.1-0.9,2-2,2h-19c-1.1,0-2-0.9-2-2V24.6c0-1.1,0.9-2,2-2h19c1.1,0,2,0.9,2,2V36.5z"/>
	</g>
	<line class="st0" x1="24.6" y1="27.2" x2="17.1" y2="34.8"/>
	<line class="st0" x1="30.1" y1="27.2" x2="22.5" y2="34.8"/>
	<circle class="st3" cx="14.5" cy="9.6" r="1.6"/>
	<circle class="st3" cx="24.5" cy="9.6" r="1.6"/>
	<circle class="st3" cx="34.5" cy="9.6" r="1.6"/>
	<circle class="st3" cx="44.5" cy="9.6" r="1.6"/>
	<circle class="st3" cx="54.5" cy="9.6" r="1.6"/>
</g>
</svg>
