<?xml version="1.0" encoding="utf-8"?>
<svg xmlns="http://www.w3.org/2000/svg"
	xmlns:xlink="http://www.w3.org/1999/xlink"
	width="32px" height="32px" viewBox="0 0 32 32">
<path fillRule="evenodd" d="M 20-0C 13.37-0 8 5.37 8 12 8 14.77 8.95 17.32 10.53 19.35 10.53 19.35 0.44 29.44 0.44 29.44 0.15 29.73-0 30.12-0 30.5-0 30.88 0.15 31.27 0.44 31.56 0.73 31.85 1.12 32 1.5 32 1.88 32 2.27 31.85 2.56 31.56 2.56 31.56 12.65 21.47 12.65 21.47 14.68 23.05 17.23 24 20 24 26.63 24 32 18.63 32 12 32 5.37 26.63-0 20-0ZM 20 21C 15.04 21 11 16.96 11 12 11 7.04 15.04 3 20 3 24.96 3 29 7.04 29 12 29 16.96 24.96 21 20 21Z" fill="rgb(215,215,215)"/></svg>